<?xml version="1.0" encoding="UTF-8"?>
<svg width="22px" height="16px" viewBox="0 0 22 16" version="1.1" xmlns="http://www.w3.org/2000/svg" xmlns:xlink="http://www.w3.org/1999/xlink">
    <!-- Generator: Sketch 46.2 (44496) - http://www.bohemiancoding.com/sketch -->
    <title>待付款</title>
    <desc>Created with Sketch.</desc>
    <defs></defs>
    <g id="Page-1" stroke="none" stroke-width="1" fill="none" fill-rule="evenodd">
        <g id="我的" transform="translate(-27.000000, -159.000000)" fill="#FF8E3A">
            <g id="待付款" transform="translate(27.000000, 159.000000)">
                <path d="M21.9553,3.75 L21.9553,1.445 C21.9553,0.647 21.3083,0 20.5103,0 L1.4453,0 C0.6463,0 0.0003,0.647 0.0003,1.445 L0.0003,3.75 L21.9553,3.75 Z" id="Fill-1"></path>
                <path d="M17.6082,11.8 C16.8352,11.8 16.2082,11.173 16.2082,10.4 C16.2082,9.627 16.8352,9 17.6082,9 C18.3812,9 19.0082,9.627 19.0082,10.4 C19.0082,11.173 18.3812,11.8 17.6082,11.8 L17.6082,11.8 Z M0.0002,5.25 L0.0002,14.555 C0.0002,15.353 0.6462,16 1.4452,16 L20.5102,16 C21.3082,16 21.9552,15.353 21.9552,14.555 L21.9552,5.25 L0.0002,5.25 Z" id="Fill-4"></path>
            </g>
        </g>
    </g>
</svg>