<?xml version="1.0" encoding="UTF-8"?>
<svg width="21px" height="16px" viewBox="0 0 21 16" version="1.1" xmlns="http://www.w3.org/2000/svg" xmlns:xlink="http://www.w3.org/1999/xlink">
    <!-- Generator: Sketch 46.2 (44496) - http://www.bohemiancoding.com/sketch -->
    <title>待评价</title>
    <desc>Created with Sketch.</desc>
    <defs></defs>
    <g id="Page-1" stroke="none" stroke-width="1" fill="none" fill-rule="evenodd">
        <g id="我的" transform="translate(-177.000000, -154.000000)" fill="#FF8E3A">
            <path d="M192.7083,162.5 C191.8803,162.5 191.2083,161.828 191.2083,161 C191.2083,160.172 191.8803,159.5 192.7083,159.5 C193.5363,159.5 194.2083,160.172 194.2083,161 C194.2083,161.828 193.5363,162.5 192.7083,162.5 M187.3753,162.5 C186.5463,162.5 185.8753,161.828 185.8753,161 C185.8753,160.172 186.5463,159.5 187.3753,159.5 C188.2033,159.5 188.8753,160.172 188.8753,161 C188.8753,161.828 188.2033,162.5 187.3753,162.5 M182.0413,162.5 C181.2133,162.5 180.5413,161.828 180.5413,161 C180.5413,160.172 181.2133,159.5 182.0413,159.5 C182.8703,159.5 183.5413,160.172 183.5413,161 C183.5413,161.828 182.8703,162.5 182.0413,162.5 M196.6943,154 L178.0553,154 C177.4723,154 177.0003,154.473 177.0003,155.056 L177.0003,166.944 C177.0003,167.527 177.4723,168 178.0553,168 L185.3713,168 L187.3753,170.003 L189.3783,168 L196.6943,168 C197.2773,168 197.7503,167.527 197.7503,166.944 L197.7503,155.056 C197.7503,154.473 197.2773,154 196.6943,154" id="待评价"></path>
        </g>
    </g>
</svg>