<?xml version="1.0" encoding="UTF-8"?>
<svg width="21px" height="18px" viewBox="0 0 21 18" version="1.1" xmlns="http://www.w3.org/2000/svg" xmlns:xlink="http://www.w3.org/1999/xlink">
    <!-- Generator: Sketch 46.2 (44496) - http://www.bohemiancoding.com/sketch -->
    <title>待收货</title>
    <desc>Created with Sketch.</desc>
    <defs></defs>
    <g id="Page-1" stroke="none" stroke-width="1" fill="none" fill-rule="evenodd">
        <g id="我的" transform="translate(-103.000000, -154.000000)" fill="#FF8E3A">
            <g id="待收货" transform="translate(103.000000, 154.000000)">
                <path d="M8.2749,10.8501 L8.2749,2.7501 L3.7299,2.7501 C1.6699,2.7501 -0.0001,4.4201 -0.0001,6.4791 L-0.0001,14.1011 C-0.0001,15.0121 0.7379,15.7501 1.6489,15.7501 L19.1019,15.7501 C20.0119,15.7501 20.7499,15.0121 20.7499,14.1011 L20.7499,10.8501 L8.2749,10.8501 Z" id="Fill-1"></path>
                <path d="M19.7339,9.25 L10.8909,9.25 C10.3299,9.25 9.8749,8.795 9.8749,8.234 L9.8749,1.016 C9.8749,0.455 10.3299,0 10.8909,0 L19.7339,0 C20.2949,0 20.7499,0.455 20.7499,1.016 L20.7499,8.234 C20.7499,8.795 20.2949,9.25 19.7339,9.25" id="Fill-4"></path>
                <path d="M7.875,15.75 C7.875,16.993 6.868,18 5.625,18 C4.382,18 3.375,16.993 3.375,15.75 C3.375,14.507 4.382,13.5 5.625,13.5 C6.868,13.5 7.875,14.507 7.875,15.75" id="Fill-6"></path>
                <path d="M17.2083,15.75 C17.2083,16.993 16.2013,18 14.9583,18 C13.7153,18 12.7083,16.993 12.7083,15.75 C12.7083,14.507 13.7153,13.5 14.9583,13.5 C16.2013,13.5 17.2083,14.507 17.2083,15.75" id="Fill-8"></path>
            </g>
        </g>
    </g>
</svg>