<?xml version="1.0" encoding="UTF-8"?>
<svg width="16px" height="19px" viewBox="0 0 16 19" version="1.1" xmlns="http://www.w3.org/2000/svg" xmlns:xlink="http://www.w3.org/1999/xlink">
    <!-- Generator: Sketch 46.2 (44496) - http://www.bohemiancoding.com/sketch -->
    <title>全部订单</title>
    <desc>Created with Sketch.</desc>
    <defs></defs>
    <g id="Page-1" stroke="none" stroke-width="1" fill="none" fill-rule="evenodd">
        <g id="我的" transform="translate(-327.000000, -152.000000)" fill="#FF6969">
            <path d="M338.8945,158.7 L331.1055,158.7 C330.7185,158.7 330.4055,158.387 330.4055,158 C330.4055,157.613 330.7185,157.3 331.1055,157.3 L338.8945,157.3 C339.2815,157.3 339.5945,157.613 339.5945,158 C339.5945,158.387 339.2815,158.7 338.8945,158.7 M335.5765,163.7 L331.1055,163.7 C330.7185,163.7 330.4055,163.387 330.4055,163 C330.4055,162.613 330.7185,162.3 331.1055,162.3 L335.5765,162.3 C335.9635,162.3 336.2765,162.613 336.2765,163 C336.2765,163.387 335.9635,163.7 335.5765,163.7 M341.4075,152 L328.5925,152 C327.7135,152 326.9995,152.713 326.9995,153.593 L326.9995,169.157 C326.9995,170.037 327.7135,170.75 328.5925,170.75 L341.4075,170.75 C342.2865,170.75 342.9995,170.037 342.9995,169.157 L342.9995,153.593 C342.9995,152.713 342.2865,152 341.4075,152" id="全部订单"></path>
        </g>
    </g>
</svg>