<?xml version="1.0" encoding="UTF-8"?>
<svg width="21px" height="20px" viewBox="0 0 21 20" version="1.1" xmlns="http://www.w3.org/2000/svg" xmlns:xlink="http://www.w3.org/1999/xlink">
    <!-- Generator: Sketch 46.2 (44496) - http://www.bohemiancoding.com/sketch -->
    <title>退换</title>
    <desc>Created with Sketch.</desc>
    <defs></defs>
    <g id="Page-1" stroke="none" stroke-width="1" fill="none" fill-rule="evenodd">
        <g id="我的" transform="translate(-253.000000, -152.000000)" fill="#FF8E3A">
            <g id="退换" transform="translate(253.000000, 152.000000)">
                <path d="M12.5752,17.9248 C7.3092,17.9248 3.0252,13.6408 3.0252,8.3748 C3.0252,8.2838 3.0072,8.1928 2.9712,8.1078 C2.9002,7.9358 2.7642,7.7998 2.5932,7.7288 C2.4212,7.6578 2.2292,7.6578 2.0572,7.7288 C1.9722,7.7638 1.8942,7.8158 1.8302,7.8798 L0.2052,9.5048 C-0.0688,9.7788 -0.0688,10.2218 0.2052,10.4948 C0.3422,10.6318 0.5212,10.6998 0.7002,10.6998 C0.8792,10.6998 1.0582,10.6318 1.1952,10.4948 L1.7502,9.9408 C2.5132,15.2378 7.0702,19.3248 12.5752,19.3248 C12.9622,19.3248 13.2752,19.0118 13.2752,18.6248 C13.2752,18.2378 12.9622,17.9248 12.5752,17.9248" id="Fill-1"></path>
                <path d="M15.4263,9.5684 C15.7493,9.5684 16.0123,9.8314 16.0123,10.1544 C16.0123,10.4784 15.7493,10.7414 15.4263,10.7414 L13.1613,10.7414 L13.1613,13.0604 C13.1613,13.3834 12.8983,13.6474 12.5753,13.6474 C12.2523,13.6474 11.9883,13.3834 11.9883,13.0604 L11.9883,10.7414 L9.7243,10.7414 C9.4013,10.7414 9.1383,10.4784 9.1383,10.1544 C9.1383,9.8314 9.4013,9.5684 9.7243,9.5684 L11.9883,9.5684 L11.9883,8.5324 L9.7243,8.5324 C9.4013,8.5324 9.1383,8.2694 9.1383,7.9454 C9.1383,7.6224 9.4013,7.3594 9.7243,7.3594 L11.1733,7.3594 L9.2733,5.0634 C9.0673,4.8144 9.1013,4.4444 9.3503,4.2384 C9.4553,4.1514 9.5883,4.1034 9.7243,4.1034 C9.8993,4.1034 10.0643,4.1804 10.1763,4.3164 L12.5713,7.2094 L14.9663,4.3164 C15.0773,4.1804 15.2423,4.1034 15.4183,4.1034 C15.5543,4.1034 15.6863,4.1514 15.7913,4.2384 C16.0403,4.4434 16.0753,4.8144 15.8693,5.0634 L13.9693,7.3594 L15.4263,7.3594 C15.7493,7.3594 16.0123,7.6224 16.0123,7.9454 C16.0123,8.2694 15.7493,8.5324 15.4263,8.5324 L13.1613,8.5324 L13.1613,9.5684 L15.4263,9.5684 Z M12.5753,0.0004 C7.9493,0.0004 4.2003,3.7494 4.2003,8.3754 C4.2003,13.0004 7.9493,16.7504 12.5753,16.7504 C17.2003,16.7504 20.9503,13.0004 20.9503,8.3754 C20.9503,3.7494 17.2003,0.0004 12.5753,0.0004 L12.5753,0.0004 Z" id="Fill-4"></path>
            </g>
        </g>
    </g>
</svg>