<?xml version="1.0" encoding="UTF-8"?>
<svg width="27px" height="30px" viewBox="0 0 27 30" version="1.1" xmlns="http://www.w3.org/2000/svg" xmlns:xlink="http://www.w3.org/1999/xlink">
    <!-- Generator: Sketch 46.2 (44496) - http://www.bohemiancoding.com/sketch -->
    <title>晚市</title>
    <desc>Created with Sketch.</desc>
    <defs></defs>
    <g id="Page-1" stroke="none" stroke-width="1" fill="none" fill-rule="evenodd">
        <g id="首页-copy" transform="translate(-235.000000, -287.000000)" fill="#000000">
            <path d="M246.019,288.752732 C240.432,290.341732 236.4,295.532732 236.4,301.459732 C236.4,308.751732 242.332,314.683732 249.624,314.683732 C253.144,314.683732 256.447,313.306732 258.912,310.856732 C258.798,310.859732 258.685,310.861732 258.572,310.861732 C250.509,310.861732 243.949,304.300732 243.949,296.237732 C243.949,293.568732 244.66,291.012732 246.019,288.752732 M249.624,316.083732 C241.56,316.083732 235,309.523732 235,301.459732 C235,294.266732 240.368,288.054732 247.487,287.008732 C247.769,286.962732 248.049,287.101732 248.193,287.348732 C248.337,287.595732 248.316,287.905732 248.141,288.130732 C246.314,290.478732 245.349,293.281732 245.349,296.237732 C245.349,303.528732 251.281,309.460732 258.572,309.460732 C259.159,309.460732 259.774,309.411732 260.505,309.303732 C260.788,309.261732 261.068,309.396732 261.212,309.643732 C261.356,309.890732 261.335,310.199732 261.16,310.425732 C258.361,314.021732 254.157,316.083732 249.624,316.083732" id="晚市"></path>
        </g>
    </g>
</svg>