<?xml version="1.0" encoding="UTF-8"?>
<svg width="33px" height="33px" viewBox="0 0 33 33" version="1.1" xmlns="http://www.w3.org/2000/svg" xmlns:xlink="http://www.w3.org/1999/xlink">
    <!-- Generator: Sketch 46.2 (44496) - http://www.bohemiancoding.com/sketch -->
    <title>早市</title>
    <desc>Created with Sketch.</desc>
    <defs></defs>
    <g id="Page-1" stroke="none" stroke-width="1" fill="none" fill-rule="evenodd">
        <g id="首页-copy" transform="translate(-182.000000, -286.000000)" fill="#000000">
            <g id="早市" transform="translate(182.000000, 286.000000)">
                <path d="M16.075,23.375 C12.05,23.375 8.775,20.101 8.775,16.075 C8.775,12.05 12.05,8.775 16.075,8.775 C20.1,8.775 23.375,12.05 23.375,16.075 C23.375,20.101 20.1,23.375 16.075,23.375 M16.075,7.375 C11.278,7.375 7.375,11.278 7.375,16.075 C7.375,20.873 11.278,24.775 16.075,24.775 C20.872,24.775 24.775,20.873 24.775,16.075 C24.775,11.278 20.872,7.375 16.075,7.375" id="Fill-1"></path>
                <path d="M16.075,6.0669 C16.462,6.0669 16.775,5.7539 16.775,5.3669 L16.775,0.6999 C16.775,0.3139 16.462,-0.0001 16.075,-0.0001 C15.688,-0.0001 15.375,0.3139 15.375,0.6999 L15.375,5.3669 C15.375,5.7539 15.688,6.0669 16.075,6.0669" id="Fill-3"></path>
                <path d="M8.0081,8.9985 C8.1451,9.1355 8.3241,9.2035 8.5031,9.2035 C8.6821,9.2035 8.8611,9.1355 8.9981,8.9985 C9.2711,8.7255 9.2711,8.2815 8.9981,8.0085 L5.6981,4.7085 C5.4251,4.4355 4.9821,4.4355 4.7081,4.7085 C4.4351,4.9815 4.4351,5.4255 4.7081,5.6985 L8.0081,8.9985 Z" id="Fill-6"></path>
                <path d="M8.0081,23.1519 L4.7081,26.4519 C4.4351,26.7249 4.4351,27.1689 4.7081,27.4419 C4.8451,27.5789 5.0241,27.6469 5.2031,27.6469 C5.3821,27.6469 5.5611,27.5789 5.6981,27.4419 L8.9981,24.1419 C9.2711,23.8689 9.2711,23.4249 8.9981,23.1519 C8.7251,22.8789 8.2821,22.8789 8.0081,23.1519" id="Fill-11"></path>
                <path d="M6.0665,16.0752 C6.0665,15.6882 5.7535,15.3752 5.3665,15.3752 L0.6995,15.3752 C0.3135,15.3752 -0.0005,15.6882 -0.0005,16.0752 C-0.0005,16.4622 0.3135,16.7752 0.6995,16.7752 L5.3665,16.7752 C5.7535,16.7752 6.0665,16.4622 6.0665,16.0752" id="Fill-8"></path>
                <path d="M16.075,26.0835 C15.688,26.0835 15.375,26.3965 15.375,26.7835 L15.375,31.4505 C15.375,31.8365 15.688,32.1505 16.075,32.1505 C16.462,32.1505 16.775,31.8365 16.775,31.4505 L16.775,26.7835 C16.775,26.3965 16.462,26.0835 16.075,26.0835" id="Fill-13"></path>
                <path d="M24.1418,23.1519 C23.8688,22.8789 23.4248,22.8789 23.1518,23.1519 C22.8788,23.4249 22.8788,23.8689 23.1518,24.1419 L26.4518,27.4419 C26.5888,27.5789 26.7678,27.6469 26.9468,27.6469 C27.1258,27.6469 27.3048,27.5789 27.4418,27.4419 C27.7148,27.1689 27.7148,26.7249 27.4418,26.4519 L24.1418,23.1519 Z" id="Fill-16"></path>
                <path d="M31.45,15.375 L26.783,15.375 C26.397,15.375 26.083,15.688 26.083,16.075 C26.083,16.462 26.397,16.775 26.783,16.775 L31.45,16.775 C31.837,16.775 32.15,16.462 32.15,16.075 C32.15,15.688 31.837,15.375 31.45,15.375" id="Fill-18"></path>
                <path d="M23.6469,9.2036 C23.8259,9.2036 24.0049,9.1356 24.1419,8.9986 L27.4419,5.6986 C27.7149,5.4256 27.7149,4.9816 27.4419,4.7086 C27.1679,4.4346 26.7249,4.4346 26.4519,4.7086 L23.1519,8.0086 C22.8789,8.2816 22.8789,8.7246 23.1519,8.9986 C23.2889,9.1356 23.4679,9.2036 23.6469,9.2036" id="Fill-20"></path>
            </g>
        </g>
    </g>
</svg>